<svg xmlns="http://www.w3.org/2000/svg" width="16" height="16" viewBox="0 0 16 16">
	<path fill="#4da3e8" d="M1.5 2.5a1 1 0 00-1 1V5h5.25a1 1 0 00.75-.33L7.67 3.33A1 1 0 018.42 3H14a1.5 1.5 0 011.5 1.5v8a1.5 1.5 0 01-1.5 1.5H2A1.5 1.5 0 01.5 12.5V3.5a1 1 0 011-1z"/>
	<path fill="#3b8cd4" d="M.5 3.5a1 1 0 011-1h5a1 1 0 01.75.33L8.42 4.17A1 1 0 009.17 4.5H15.5V5H.5z"/>
		<path fill="none" stroke="#89b4fa" d="M8,10 L13.5551807,15.4315107 C13.5551807,15.4315107 13.7338984,15.5745056 13.897341,15.4472582 L15.3309858,14.708029 C15.5261666,14.5643101 15.4986715,14.3867431 15.4986715,14.3867431 L15.4986715,9.55007729 C15.4986715,9.33775705 15.2970414,9.26408754 15.2970414,9.26408754 L13.9752436,8.57735014 C13.6867155,8.38494059 13.4976448,8.61210333 13.4976448,8.61210333 L13.0767334,9.01755714 L8,14" />
</svg>
