<svg xmlns="http://www.w3.org/2000/svg" width="16" height="16" viewBox="0 0 16 16">
	<path fill="#4da3e8" d="M1.5 2.5a1 1 0 00-1 1V5h5.25a1 1 0 00.75-.33L7.67 3.33A1 1 0 018.42 3H14a1.5 1.5 0 011.5 1.5v8a1.5 1.5 0 01-1.5 1.5H2A1.5 1.5 0 01.5 12.5V3.5a1 1 0 011-1z"/>
	<path fill="#3b8cd4" d="M.5 3.5a1 1 0 011-1h5a1 1 0 01.75.33L8.42 4.17A1 1 0 009.17 4.5H15.5V5H.5z"/>
	<path fill="none" stroke="#7f849c" stroke-linecap="round" stroke-linejoin="round" d="M 8.2585937,7.8562001 H 9.4291113 A 0.5852588,0.58460205 0 0 1 10.014371,8.4408022 V 14.871425 A 0.5852588,0.58460205 0 0 1 9.4291113,15.456027 H 8.2585937 A 0.5852588,0.58460205 0 0 1 7.6733349,14.871425 V 8.4408022 A 0.5852588,0.58460205 0 0 1 8.2585937,7.8562001 m 2.3410353,1.7538062 h 0.585259 a 0.5852588,0.58460205 0 0 1 0.585258,0.5846017 v 4.676817 a 0.5852588,0.58460205 0 0 1 -0.585258,0.584602 h -0.585259 a 0.5852588,0.58460205 0 0 1 -0.585258,-0.584602 v -4.676817 a 0.5852588,0.58460205 0 0 1 0.585258,-0.5846017 m 2.0367,0.2338408 1.12955,-0.3039931 a 0.29262941,0.29230102 0 0 1 0.36286,0.2046107 l 1.363653,5.0860383 a 0.29262941,0.29230102 0 0 1 -0.210693,0.350761 l -1.129549,0.309839 a 0.29262941,0.29230102 0 0 1 -0.357008,-0.210457 l -1.363654,-5.086038 a 0.29262941,0.29230102 0 0 1 0.204841,-0.3507609" />
</svg>
