<svg xmlns="http://www.w3.org/2000/svg" width="16" height="16" viewBox="0 0 16 16">
	<path fill="#4da3e8" d="M1.5 2.5a1 1 0 00-1 1V5h5.25a1 1 0 00.75-.33L7.67 3.33A1 1 0 018.42 3H14a1.5 1.5 0 011.5 1.5v8a1.5 1.5 0 01-1.5 1.5H2A1.5 1.5 0 01.5 12.5V3.5a1 1 0 011-1z"/>
	<path fill="#3b8cd4" d="M.5 3.5a1 1 0 011-1h5a1 1 0 01.75.33L8.42 4.17A1 1 0 009.17 4.5H15.5V5H.5z"/>
		<g fill="none" stroke="#eba0ac">
			<path d="M10.654 14.423A1.077 1.077 0 019.577 15.5 1.077 1.077 0 018.5 14.423a1.077 1.077 0 011.077-1.077 1.077 1.077 0 011.077 1.077m4.846-1.077a1.077 1.077 0 01-1.077 1.077 1.077 1.077 0 01-1.077-1.077 1.077 1.077 0 011.077-1.077 1.077 1.077 0 011.077 1.077" />
			<path d="M10.654 14.423v-4.038c0-.291.237-.652.727-.808L14.773 8.5c.485 0 .727.474.727.808v4.081m-4.846-1.658 4.846-1.616" />
</g>
</svg>
