<svg xmlns="http://www.w3.org/2000/svg" width="16" height="16" viewBox="0 0 16 16">
	<path fill="#4da3e8" d="M1.5 2.5a1 1 0 00-1 1V5h5.25a1 1 0 00.75-.33L7.67 3.33A1 1 0 018.42 3H14a1.5 1.5 0 011.5 1.5v8a1.5 1.5 0 01-1.5 1.5H2A1.5 1.5 0 01.5 12.5V3.5a1 1 0 011-1z"/>
	<path fill="#3b8cd4" d="M.5 3.5a1 1 0 011-1h5a1 1 0 01.75.33L8.42 4.17A1 1 0 009.17 4.5H15.5V5H.5z"/>
		<path fill="none" stroke="#a6e3a1" d="M15.5,13.5 L15.5,14.7 C15.5,15.1418278 15.1418278,15.5 14.7,15.5 L10.3,15.5 C9.85817221,15.5 9.5,15.1418278 9.5,14.7 L9.5,13.5 L9,13.5 C8.44771525,13.5 8,13.0522847 8,12.5 C8,11.9477153 8.44771525,11.5 9,11.5 L9.5,11.5 L9.5,10.3 C9.5,9.85817221 9.85817221,9.5 10.3,9.5 L11.5,9.5 L11.5,9 C11.5,8.44771525 11.9477153,8 12.5,8 C13.0522847,8 13.5,8.44771525 13.5,9 L13.5,9.5 L14.7,9.5 C15.1418278,9.5 15.5,9.85817221 15.5,10.3 L15.5,11.5 L15,11.5 C14.4477153,11.5 14,11.9477153 14,12.5 C14,13.0522847 14.4477153,13.5 15,13.5 L15.5,13.5 Z" />
</svg>
