<svg xmlns="http://www.w3.org/2000/svg" width="16" height="16" viewBox="0 0 16 16">
	<path fill="#4da3e8" d="M1.5 2.5a1 1 0 00-1 1V5h5.25a1 1 0 00.75-.33L7.67 3.33A1 1 0 018.42 3H14a1.5 1.5 0 011.5 1.5v8a1.5 1.5 0 01-1.5 1.5H2A1.5 1.5 0 01.5 12.5V3.5a1 1 0 011-1z"/>
	<path fill="#3b8cd4" d="M.5 3.5a1 1 0 011-1h5a1 1 0 01.75.33L8.42 4.17A1 1 0 009.17 4.5H15.5V5H.5z"/>
		<g fill="none" stroke="#89b4fa">
			<path d="m 8.5,11.5 h 5 L 13.75,11 c -0.151299,-0.554645 -0.464664,-0.945198 -0.25,-1.5 0.469981,0.2967216 0.650865,0.937471 1,1 0.357028,-0.04442 1,-1 1,0 0,0 0,1.5 -1,1.5 C 14,14 12.75,14.500026 11,14.500026 8.25,14.500026 8.5,11.5 8.5,11.5 Z" />
			<path d="m 9.5,11.5 v -2 h 2 v 1 1" />
</g>
</svg>
