<svg xmlns="http://www.w3.org/2000/svg" width="16" height="16" viewBox="0 0 16 16">
	<path fill="#4da3e8" d="M1.5 2.5a1 1 0 00-1 1V5h5.25a1 1 0 00.75-.33L7.67 3.33A1 1 0 018.42 3H14a1.5 1.5 0 011.5 1.5v8a1.5 1.5 0 01-1.5 1.5H2A1.5 1.5 0 01.5 12.5V3.5a1 1 0 011-1z"/>
	<path fill="#3b8cd4" d="M.5 3.5a1 1 0 011-1h5a1 1 0 01.75.33L8.42 4.17A1 1 0 009.17 4.5H15.5V5H.5z"/>
		<path fill="none" stroke="#7f849c" d="m 10.5,9.5 h 3 c 0.552285,0 1,0.4477153 1,1 v 3 c 0,0.552285 -0.447715,1 -1,1 h -3 c -0.5522847,0 -1,-0.447715 -1,-1 v -3 c 0,-0.5522847 0.4477153,-1 1,-1 z m 0,0 v -1 m 3,1 v -1 m -3,7 v -1 m 3,1 v -1 m -5,-4 h 1 m -1,3 h 1 m 5,-3 h 1 m -1,3 h 1" />
</svg>
