<svg xmlns="http://www.w3.org/2000/svg" width="16" height="16" viewBox="0 0 16 16">
	<path fill="#4da3e8" d="M1.5 2.5a1 1 0 00-1 1V5h5.25a1 1 0 00.75-.33L7.67 3.33A1 1 0 018.42 3H14a1.5 1.5 0 011.5 1.5v8a1.5 1.5 0 01-1.5 1.5H2A1.5 1.5 0 01.5 12.5V3.5a1 1 0 011-1z"/>
	<path fill="#3b8cd4" d="M.5 3.5a1 1 0 011-1h5a1 1 0 01.75.33L8.42 4.17A1 1 0 009.17 4.5H15.5V5H.5z"/>
	<path fill="none" stroke="#f9e2af" stroke-linejoin="round" d="M 12.923206,11.903796 H 7.4999642 L 10.211585,6.9999457 Z" />
	<path fill="none" stroke="#f9e2af" stroke-linejoin="round" d="m 11.662302,9.6413547 a 2.5689041,2.5961567 0 1 1 -1.308,2.2624413" />
</svg>
