<svg xmlns="http://www.w3.org/2000/svg" width="16" height="16" viewBox="0 0 16 16">
	<path fill="#4da3e8" d="M1.5 2.5a1 1 0 00-1 1V5h5.25a1 1 0 00.75-.33L7.67 3.33A1 1 0 018.42 3H14a1.5 1.5 0 011.5 1.5v8a1.5 1.5 0 01-1.5 1.5H2A1.5 1.5 0 01.5 12.5V3.5a1 1 0 011-1z"/>
	<path fill="#3b8cd4" d="M.5 3.5a1 1 0 011-1h5a1 1 0 01.75.33L8.42 4.17A1 1 0 009.17 4.5H15.5V5H.5z"/>
		<path fill="none" stroke="#74c7ec" d="M 8.500151,12.000076 H 15.5 M 12.000076,15.5 c -1.932955,0 -3.499925,-1.499849 -3.499925,-3.499924 0,-2.000076 1.56697,-3.499925 3.499925,-3.499925 2.000075,0 3.499924,1.5 3.499924,3.499925 C 15.5,14.000151 14.000151,15.5 12.000076,15.5 Z M 11.55623,9.000151 c -1.37927,2.010618 -1.447783,4.009525 0.08683,6.339119 m 0.81135,-6.339119 c 1.360556,1.979117 1.449569,3.98033 -0.062,6.339119" />
</svg>
