<svg xmlns="http://www.w3.org/2000/svg" width="16" height="16" viewBox="0 0 16 16">
	<path fill="#4da3e8" d="M1.5 2.5a1 1 0 00-1 1V5h5.25a1 1 0 00.75-.33L7.67 3.33A1 1 0 018.42 3H14a1.5 1.5 0 011.5 1.5v8a1.5 1.5 0 01-1.5 1.5H2A1.5 1.5 0 01.5 12.5V3.5a1 1 0 011-1z"/>
	<path fill="#3b8cd4" d="M.5 3.5a1 1 0 011-1h5a1 1 0 01.75.33L8.42 4.17A1 1 0 009.17 4.5H15.5V5H.5z"/>
		<path fill="none" stroke="#a6e3a1" d="M 19.5,18 18.235246,16.734042 C 18.405327,16.357649 18.5,15.939881 18.5,15.5 c 0,-1.656854 -1.343146,-3 -3,-3 -0.439695,0 -0.857296,0.09459 -1.233565,0.264538 L 16,14.5 14.5,16 12.76418,14.267228 C 12.59446,14.64329 12.5,15.060614 12.5,15.5 c 0,1.656854 1.343146,3 3,3 0.439844,0 0.857579,-0.09466 1.233947,-0.264711 L 18,19.5" transform="translate(-4 -4)" />
</svg>
