<svg xmlns="http://www.w3.org/2000/svg" width="16" height="16" viewBox="0 0 16 16">
	<path fill="#4da3e8" d="M1.5 2.5a1 1 0 00-1 1V5h5.25a1 1 0 00.75-.33L7.67 3.33A1 1 0 018.42 3H14a1.5 1.5 0 011.5 1.5v8a1.5 1.5 0 01-1.5 1.5H2A1.5 1.5 0 01.5 12.5V3.5a1 1 0 011-1z"/>
	<path fill="#3b8cd4" d="M.5 3.5a1 1 0 011-1h5a1 1 0 01.75.33L8.42 4.17A1 1 0 009.17 4.5H15.5V5H.5z"/>
		<path fill="none" stroke="#89b4fa" d="M8.5,15.5001867 L8.5,13.9445689 C8.5,13.0854248 9.19647384,12.388951 10.0556179,12.388951 C10.9147619,12.388951 11.6112357,13.0854248 11.6112357,13.9445689 C11.6112357,14.8037129 10.9147619,15.5001867 10.0556179,15.5001867 L8.5,15.5001867 M15.5,8.5 C13.2388128,8.80927352 11.3283953,10.3316251 10.522135,12.466704 M15.5,8.5 C15.1907265,10.7611872 13.6683749,12.6716047 11.533296,13.477865 M11.455543,10.833333 C12.2112249,11.1821153 12.8178842,11.7887746 13.1666666,12.5444566" />
</svg>
