<svg xmlns="http://www.w3.org/2000/svg" width="16" height="16" viewBox="0 0 16 16">
	<path fill="#4da3e8" d="M1.5 2.5a1 1 0 00-1 1V5h5.25a1 1 0 00.75-.33L7.67 3.33A1 1 0 018.42 3H14a1.5 1.5 0 011.5 1.5v8a1.5 1.5 0 01-1.5 1.5H2A1.5 1.5 0 01.5 12.5V3.5a1 1 0 011-1z"/>
	<path fill="#3b8cd4" d="M.5 3.5a1 1 0 011-1h5a1 1 0 01.75.33L8.42 4.17A1 1 0 009.17 4.5H15.5V5H.5z"/>
		<path fill="none" stroke="#7f849c" d="M 10,14.906671 C 8.4999999,15.406671 8.75,14.25 8,14 m 5,1.5 V 14.437702 C 13,13.991331 12.7625,13.767822 12.5,13.5 13.725,13.366089 15,12.920041 15,10.866734 14.999467,10.333305 14.795489,9.9019333 14.43125,9.5192558 c 0.170829,-0.463348 0.155102,-0.9768257 -0.04375,-1.428387 0,0 -0.48125,-0.1339112 -1.53125,0.5802822 -0.889333,-0.2363142 -1.823167,-0.2363142 -2.7125,0 C 9.09375,7.9569576 8.6125,8.0908688 8.6125,8.0908688 8.413648,8.5424301 8.3979207,9.0559078 8.56875,9.5192558 8.2045106,9.9019333 8.0005327,10.333305 8,10.866734 8,12.920041 9.275,13.366089 10.5,13.5 10.2375,13.767822 9.95625,14.080605 10,14.437702 V 15.5" />
</svg>
