<svg xmlns="http://www.w3.org/2000/svg" width="16" height="16" viewBox="0 0 16 16">
	<path fill="#4da3e8" d="M1.5 2.5a1 1 0 00-1 1V5h5.25a1 1 0 00.75-.33L7.67 3.33A1 1 0 018.42 3H14a1.5 1.5 0 011.5 1.5v8a1.5 1.5 0 01-1.5 1.5H2A1.5 1.5 0 01.5 12.5V3.5a1 1 0 011-1z"/>
	<path fill="#3b8cd4" d="M.5 3.5a1 1 0 011-1h5a1 1 0 01.75.33L8.42 4.17A1 1 0 009.17 4.5H15.5V5H.5z"/>
		<path fill="none" stroke="#f9e2af" d="M11.5 13.5a1.5 1.5 0 100-3 1.5 1.5 0 000 3zm-3-4a.5.5 0 100-1 .5.5 0 000 1Zm6 0a.5.5 0 100-1 .5.5 0 000 1zm0 6a.5.5 0 100-1 .5.5 0 000 1zm-6 0a.5.5 0 100-1 .5.5 0 000 1zm4-4.5L14 9.5M12.5 13l1.5 1.5m-5 0 1.5-1.5M9 9.5l1.5 1.5" />
</svg>
