<svg xmlns="http://www.w3.org/2000/svg" width="16" height="16" viewBox="0 0 16 16">
	<path fill="#4da3e8" d="M1.5 2.5a1 1 0 00-1 1V5h5.25a1 1 0 00.75-.33L7.67 3.33A1 1 0 018.42 3H14a1.5 1.5 0 011.5 1.5v8a1.5 1.5 0 01-1.5 1.5H2A1.5 1.5 0 01.5 12.5V3.5a1 1 0 011-1z"/>
	<path fill="#3b8cd4" d="M.5 3.5a1 1 0 011-1h5a1 1 0 01.75.33L8.42 4.17A1 1 0 009.17 4.5H15.5V5H.5z"/>
		<path fill="none" stroke="#fab387" d="M14.6916093,8.499999 L9.30836364,8.499999 C9.22181843,8.499999 9.13924823,8.53632871 9.08082869,8.60018192 C9.02240914,8.66403512 8.99352159,8.74950463 9.00122457,8.83570636 L9.47008374,14.0770838 C9.48149995,14.2048548 9.57084873,14.3122019 9.69442599,14.3466173 L11.9970813,15.499999 L14.3053855,14.3469401 C14.429256,14.3126528 14.5188542,14.2051092 14.530212,14.0770838 L14.9987484,8.83554496 C15.0065375,8.74933315 14.9777203,8.66381882 14.9193409,8.5999049 C14.8607312,8.5362468 14.778149,8.499999 14.6916093,8.499999 Z" />
</svg>
