<svg xmlns="http://www.w3.org/2000/svg" width="16" height="16" viewBox="0 0 16 16">
	<path fill="#4da3e8" d="M1.5 2.5a1 1 0 00-1 1V5h5.25a1 1 0 00.75-.33L7.67 3.33A1 1 0 018.42 3H14a1.5 1.5 0 011.5 1.5v8a1.5 1.5 0 01-1.5 1.5H2A1.5 1.5 0 01.5 12.5V3.5a1 1 0 011-1z"/>
	<path fill="#3b8cd4" d="M.5 3.5a1 1 0 011-1h5a1 1 0 01.75.33L8.42 4.17A1 1 0 009.17 4.5H15.5V5H.5z"/>
		<path fill="none" stroke="#f9e2af" d="m 8.5,9.5 c 0.6666667,0.666667 1.833333,1 3.5,1 1.666667,0 2.833333,-0.333333 3.5,-1 m -7,2.5 c 0.6666667,0.666667 1.833333,1 3.5,1 1.666667,0 2.833333,-0.333333 3.5,-1 m -7,2.5 v -5 c 0.6666667,-0.6666667 1.833333,-1 3.5,-1 1.666667,0 2.833333,0.3333333 3.5,1 v 5 c -0.666667,0.666667 -1.833333,1 -3.5,1 -1.666667,0 -2.8333333,-0.333333 -3.5,-1 z" />
</svg>
