<svg xmlns="http://www.w3.org/2000/svg" width="16" height="16" viewBox="0 0 16 16">
	<path fill="#4da3e8" d="M1.5 2.5a1 1 0 00-1 1V5h5.25a1 1 0 00.75-.33L7.67 3.33A1 1 0 018.42 3H14a1.5 1.5 0 011.5 1.5v8a1.5 1.5 0 01-1.5 1.5H2A1.5 1.5 0 01.5 12.5V3.5a1 1 0 011-1z"/>
	<path fill="#3b8cd4" d="M.5 3.5a1 1 0 011-1h5a1 1 0 01.75.33L8.42 4.17A1 1 0 009.17 4.5H15.5V5H.5z"/>
	<path fill="none" stroke="#f5c2e7" stroke-linecap="round" stroke-linejoin="round" d="m 11.805378,7.4418439 3.694643,3.7192471 -3.694643,3.512621 V 12.40084 c -2.8736065,0 -4.1051525,3.099371 -4.1051525,3.099371 0,-3.512621 1.026289,-5.7854938 4.1051525,-5.7854938 z" />
</svg>
