<svg xmlns="http://www.w3.org/2000/svg" width="16" height="16" viewBox="0 0 16 16">
	<path fill="#4da3e8" d="M1.5 2.5a1 1 0 00-1 1V5h5.25a1 1 0 00.75-.33L7.67 3.33A1 1 0 018.42 3H14a1.5 1.5 0 011.5 1.5v8a1.5 1.5 0 01-1.5 1.5H2A1.5 1.5 0 01.5 12.5V3.5a1 1 0 011-1z"/>
	<path fill="#3b8cd4" d="M.5 3.5a1 1 0 011-1h5a1 1 0 01.75.33L8.42 4.17A1 1 0 009.17 4.5H15.5V5H.5z"/>
		<path fill="none" stroke="#a6e3a1" d="M14.5 15.5 11 12 8.5 14.5" />
		<path fill="none" stroke="#74c7ec" d="M9.5,8.5 L14.4974843,8.5 C15.049769,8.5 15.4974843,8.94771525 15.4974843,9.5 L15.4974843,14.5 C15.4974843,15.0522847 15.049769,15.5 14.4974843,15.5 L9.5,15.5 C8.94771525,15.5 8.5,15.0522847 8.5,14.5 L8.5,9.5 C8.5,8.94771525 8.94771525,8.5 9.5,8.5 Z" />
		<circle fill="none" cx="13.5" cy="10.5" r=".5" stroke="#f9e2af" />
</svg>
