<svg xmlns="http://www.w3.org/2000/svg" width="16" height="16" viewBox="0 0 16 16">
	<path fill="#4da3e8" d="M1.5 2.5a1 1 0 00-1 1V5h5.25a1 1 0 00.75-.33L7.67 3.33A1 1 0 018.42 3H14a1.5 1.5 0 011.5 1.5v8a1.5 1.5 0 01-1.5 1.5H2A1.5 1.5 0 01.5 12.5V3.5a1 1 0 011-1z"/>
	<path fill="#3b8cd4" d="M.5 3.5a1 1 0 011-1h5a1 1 0 01.75.33L8.42 4.17A1 1 0 009.17 4.5H15.5V5H.5z"/>
		<path fill="none" stroke="#eba0ac" d="M11.5,10.5 L14.5,10.5 C15.0522847,10.5 15.5,10.9477153 15.5,11.5 L15.5,14.5 C15.5,15.0522847 15.0522847,15.5 14.5,15.5 L11.5,15.5 C10.9477153,15.5 10.5,15.0522847 10.5,14.5 L10.5,11.5 C10.5,10.9477153 10.9477153,10.5 11.5,10.5 Z M13.5,10.1667182 L13.5,9.33335909 C13.5,8.87310757 13.1268924,8.5 12.6666409,8.5 L9.33335909,8.5 C8.87310757,8.5 8.5,8.87310757 8.5,9.33335909 L8.5,12.6666409 C8.5,13.1268924 8.87310757,13.5 9.33335909,13.5 L10.1665636,13.5" />
</svg>
