<svg xmlns="http://www.w3.org/2000/svg" width="16" height="16" viewBox="0 0 16 16">
	<path fill="#4da3e8" d="M1.5 2.5a1 1 0 00-1 1V5h5.25a1 1 0 00.75-.33L7.67 3.33A1 1 0 018.42 3H14a1.5 1.5 0 011.5 1.5v8a1.5 1.5 0 01-1.5 1.5H2A1.5 1.5 0 01.5 12.5V3.5a1 1 0 011-1z"/>
	<path fill="#3b8cd4" d="M.5 3.5a1 1 0 011-1h5a1 1 0 01.75.33L8.42 4.17A1 1 0 009.17 4.5H15.5V5H.5z"/>
		<path fill="none" stroke="#fab387" d="M10.5 10.5 10.5 13.5M9.75 8.75 8 7M12.75 11.75 11.25 10.25M10.5 15.5C11.0522847 15.5 11.5 15.0522847 11.5 14.5 11.5 13.9477153 11.0522847 13.5 10.5 13.5 9.94771525 13.5 9.5 13.9477153 9.5 14.5 9.5 15.0522847 9.94771525 15.5 10.5 15.5ZM10.5 10.5C11.0522847 10.5 11.5 10.0522847 11.5 9.5 11.5 8.94771525 11.0522847 8.5 10.5 8.5 9.94771525 8.5 9.5 8.94771525 9.5 9.5 9.5 10.0522847 9.94771525 10.5 10.5 10.5ZM13.5 13.5C14.0522847 13.5 14.5 13.0522847 14.5 12.5 14.5 11.9477153 14.0522847 11.5 13.5 11.5 12.9477153 11.5 12.5 11.9477153 12.5 12.5 12.5 13.0522847 12.9477153 13.5 13.5 13.5Z" />
</svg>
