<svg xmlns="http://www.w3.org/2000/svg" width="16" height="16" viewBox="0 0 16 16">
	<path fill="#4da3e8" d="M1.5 2.5a1 1 0 00-1 1V5h5.25a1 1 0 00.75-.33L7.67 3.33A1 1 0 018.42 3H14a1.5 1.5 0 011.5 1.5v8a1.5 1.5 0 01-1.5 1.5H2A1.5 1.5 0 01.5 12.5V3.5a1 1 0 011-1z"/>
	<path fill="#3b8cd4" d="M.5 3.5a1 1 0 011-1h5a1 1 0 01.75.33L8.42 4.17A1 1 0 009.17 4.5H15.5V5H.5z"/>
		<path fill="none" stroke="#89b4fa" d="m 8.5175952,15.5 1.0156421,-1.015642 m 3.9687157,-5.9685602 -2,1.9899902 m 3.998047,0.01001 -1.998047,2 m -2.969095,-2.6251372 3.594231,3.5940752 -0.898597,0.898597 c -0.636935,0.66647 -1.584784,0.935859 -2.477035,0.704003 C 9.859207,14.855479 9.1624176,14.15872 8.9305221,13.26648 8.6986267,12.374239 8.9679753,11.426378 9.634417,10.789414 Z" />
</svg>
